<svg xmlns="http://www.w3.org/2000/svg" width="18" height="20" fill="currentColor" viewBox="0 0 18 20">
  <path fill="#C2C2C2" fill-rule="evenodd" d="M9.167.4a4.8 4.8 0 0 0-4.8 4.8v1.2h-1.2a1.2 1.2 0 0 0-1.193 1.067l-1.2 10.8A1.2 1.2 0 0 0 1.967 19.6h14.4a1.2 1.2 0 0 0 1.192-1.333l-1.2-10.8A1.2 1.2 0 0 0 15.167 6.4h-1.2V5.2a4.8 4.8 0 0 0-4.8-4.8Zm2.4 6V5.2a2.4 2.4 0 0 0-4.8 0v1.2h4.8Zm-7.2 3.6a1.2 1.2 0 1 1 2.4 0 1.2 1.2 0 0 1-2.4 0Zm8.4-1.2a1.2 1.2 0 1 0 0 2.4 1.2 1.2 0 0 0 0-2.4Z" clip-rule="evenodd"/>
</svg>
